<?xml version="1.0" standalone="no"?>
<!DOCTYPE svg PUBLIC "-//W3C//DTD SVG 20010904//EN"
 "http://www.w3.org/TR/2001/REC-SVG-20010904/DTD/svg10.dtd">
<svg version="1.0" xmlns="http://www.w3.org/2000/svg"
 width="800.000000pt" height="800.000000pt" viewBox="0 0 800.000000 800.000000"
 preserveAspectRatio="xMidYMid meet">
<metadata>
Created by potrace 1.13, written by Peter Selinger 2001-2015
</metadata>
<g transform="translate(0.000000,800.000000) scale(0.100000,-0.100000)"
fill="#000000" stroke="none">
<path d="M285 7991 c-106 -26 -195 -98 -246 -197 l-34 -68 0 -3725 0 -3726 29
-60 c38 -76 110 -149 184 -183 l57 -27 3725 0 3725 0 57 27 c74 34 146 107
184 183 l29 60 0 3725 0 3725 -29 60 c-38 76 -110 149 -184 183 l-57 27 -3705
2 c-2038 0 -3718 -2 -3735 -6z m7476 -133 c25 -15 58 -43 73 -62 60 -80 56
220 56 -3795 0 -3327 -2 -3682 -16 -3724 -17 -51 -74 -116 -126 -144 -32 -17
-187 -18 -3748 -18 -3561 0 -3716 1 -3748 18 -52 28 -109 93 -126 144 -14 42
-16 397 -16 3724 0 4012 -4 3715 56 3794 28 37 78 72 122 85 15 5 1692 8 3727
7 l3700 -2 46 -27z"/>
<path d="M3151 7395 c-71 -20 -155 -66 -215 -117 -49 -42 -49 -42 -122 -39
-91 3 -171 -12 -251 -50 -66 -32 -155 -106 -194 -163 -19 -29 -31 -36 -56 -36
-157 0 -346 -117 -428 -264 -68 -123 -65 -68 -65 -1259 l0 -1075 -365 -1003
c-397 -1090 -398 -1094 -376 -1226 27 -158 142 -314 278 -378 59 -27 64 -32
79 -80 30 -91 66 -149 133 -215 73 -72 140 -113 222 -133 51 -13 56 -17 89
-76 64 -112 165 -198 285 -244 59 -22 67 -22 695 -27 l635 -5 555 -204 c509
-187 562 -204 635 -208 45 -3 105 0 138 6 75 16 182 70 241 122 l47 42 83 -2
c96 -2 157 10 243 51 66 31 155 105 194 162 19 29 31 36 56 36 161 0 352 120
432 269 64 120 61 68 61 1252 l0 1077 356 978 c196 539 362 999 369 1024 69
232 -39 488 -250 597 -74 38 -75 38 -96 100 -54 162 -194 297 -350 336 -51 13
-56 17 -89 76 -64 112 -165 198 -285 244 -59 22 -67 22 -695 27 l-635 5 -555
204 -555 204 -95 3 c-64 3 -112 -1 -149 -11z m265 -105 c58 -13 3054 -1104
3131 -1140 186 -86 305 -308 274 -510 -12 -74 -1650 -4594 -1698 -4683 -37
-70 -138 -168 -205 -201 -108 -53 -232 -70 -335 -46 -58 14 -3053 1104 -3130
1140 -187 86 -305 308 -273 512 11 73 1650 4591 1698 4683 56 105 186 206 309
240 57 16 172 18 229 5z m-601 -167 c-15 -42 -359 -984 -550 -1510 -115 -315
-210 -571 -212 -569 -8 8 299 1721 317 1768 59 155 194 275 353 314 78 19 101
18 92 -3z m2890 -238 c98 -21 167 -58 244 -131 36 -34 64 -64 61 -67 -4 -4
-1127 191 -1185 206 -11 2 167 5 395 6 331 0 429 -2 485 -14z m-3419 -55 c-7
-30 -96 -525 -197 -1100 l-184 -1044 -3 884 c-1 586 1 902 8 936 34 162 171
315 328 364 31 10 58 17 59 16 1 0 -4 -26 -11 -56z m3449 -195 c204 -35 393
-71 421 -80 102 -30 216 -124 272 -223 l23 -41 -53 18 c-75 27 -1016 371
-1058 387 -43 17 -79 23 395 -61z m349 -5165 c-47 -163 -177 -299 -331 -343
l-51 -15 7 26 c4 15 93 510 197 1100 l189 1073 3 -893 c2 -792 0 -899 -14
-948z m-284 624 c-83 -472 -160 -879 -170 -906 -63 -165 -204 -284 -378 -318
-34 -7 -65 -11 -67 -8 -3 3 17 63 44 134 26 71 198 542 381 1046 184 505 335
916 337 914 2 -2 -64 -390 -147 -862z m-3618 -615 c278 -101 505 -185 504
-186 -1 -2 -190 30 -420 71 -368 65 -425 78 -484 107 -75 37 -173 128 -210
197 l-24 42 64 -23 c35 -13 291 -107 570 -208z m538 -290 l475 -84 -413 -3
c-450 -2 -504 2 -609 54 -53 25 -155 111 -173 144 -9 16 1 16 118 -5 70 -12
341 -60 602 -106z"/>
<path d="M3975 5441 c-22 -4 -45 -10 -52 -14 -23 -15 -303 -376 -303 -391 0
-9 19 -26 44 -38 l44 -21 81 71 c44 39 106 90 138 114 56 43 57 43 137 42 343
-2 594 -314 489 -606 -59 -162 -186 -270 -563 -478 -217 -120 -332 -215 -379
-314 -50 -107 -52 -212 -5 -315 35 -80 41 -84 99 -69 43 12 46 15 40 38 -4 14
-9 58 -12 98 -5 64 -2 78 22 127 53 108 145 167 505 320 356 151 462 215 555
333 98 122 146 260 146 418 1 147 -36 252 -134 382 -102 135 -327 260 -537
298 -77 14 -245 16 -315 5z"/>
<path d="M3405 3151 c-51 -23 -111 -89 -124 -138 -44 -156 58 -296 214 -297
191 -2 297 208 184 364 -58 80 -184 113 -274 71z"/>
</g>
</svg>
